<?xml version="1.0" encoding="UTF-8"?>
<svg id="OBJECTS" xmlns="http://www.w3.org/2000/svg" viewBox="0 0 124.72 110">
  <defs>
    <style>
      .cls-1 {
        fill: #6d9973;
      }
    </style>
  </defs>
  <g>
    <path class="cls-1" d="M95.22,50.33H8.64c-1.7,0-3.53-.48-3.53-1.54v-15.05c0-1.06,1.83-1.54,3.53-1.54H95.22c1.7,0,3.53,.48,3.53,1.54v15.05c0,1.06-1.83,1.54-3.53,1.54ZM8.64,33.03c-1.79,0-2.73,.52-2.79,.72v15.04c.06,.19,1,.72,2.78,.72H95.22c1.79,0,2.72-.52,2.78-.73v-15.04c-.05-.19-.99-.71-2.78-.71H8.64Z"/>
    <path class="cls-1" d="M108.5,69.35h-5.3c-1.41,0-2.56-1.5-2.56-3.35v-27.66c0-1.85,1.15-3.35,2.56-3.35h5.3c1.41,0,2.57,1.5,2.56,3.35v27.66c0,1.85-1.15,3.35-2.56,3.35Zm-5.3-33.53c-1,0-1.81,1.13-1.81,2.53v27.66c0,1.39,.81,2.52,1.81,2.52h5.3c1,0,1.82-1.13,1.82-2.52v-27.66c0-1.39-.81-2.53-1.82-2.53h-5.3Z"/>
    <path class="cls-1" d="M110.25,71.58h-12.11s.04-.54,.04-.54c0-.14,.02-.27,.02-.41,0-4.84-3.58-8.77-7.98-8.77-4.4,0-7.98,3.94-7.97,8.77,0,.12,0,.24,.01,.36l.03,.6H44.06s.03-.59,.03-.59c.01-.12,.02-.25,.02-.37,0-4.84-3.58-8.78-7.98-8.77-4.4,0-7.98,3.94-7.98,8.77,0,.13,0,.25,.02,.37l.03,.59H6.58c-2.81,0-5.02-1.53-5.02-3.49V33.08c0-1.96,2.2-3.49,5.02-3.49H107.9c2.73,0,5.19,4.13,5.19,6.08l2.17,32.39c0,1.99-2.2,3.52-5.01,3.52Zm-11.31-.83h11.31c2.31,0,4.27-1.22,4.27-2.67l-2.17-32.4c0-1.5-2.11-5.29-4.44-5.29H6.58c-2.31,0-4.27,1.22-4.27,2.67v35.01c0,1.45,1.95,2.67,4.27,2.67H27.4s0-.09,0-.13c0-5.29,3.92-9.6,8.73-9.6,4.81,0,8.73,4.31,8.73,9.6,0,.05,0,.09,0,.14h36.63s0-.09,0-.14c0-5.29,3.92-9.6,8.73-9.6,4.81,0,8.73,4.31,8.73,9.6,0,.05,0,.09,0,.13Z"/>
    <path class="cls-1" d="M36.13,77.56c-3.25,0-6.01-2.79-6.28-6.35-.02-.19-.03-.38-.03-.58,0-3.82,2.83-6.93,6.31-6.93,3.47,0,6.3,3.11,6.3,6.93,0,.2-.01,.39-.03,.58-.27,3.56-3.03,6.35-6.28,6.35Zm0-13.04c-3.06,0-5.55,2.74-5.55,6.11,0,.17,.01,.34,.02,.51,.24,3.14,2.67,5.59,5.53,5.59,2.86,0,5.29-2.46,5.53-5.6,.02-.17,.02-.34,.02-.51,0-3.37-2.49-6.11-5.55-6.11Zm0,10.82c-2.14,0-3.96-1.77-4.23-4.12v-.1c-.03-.16-.05-.33-.05-.5,0-2.6,1.92-4.71,4.28-4.71,2.36,0,4.29,2.11,4.29,4.71,0,.17-.02,.32-.04,.48v.12c-.29,2.35-2.11,4.11-4.24,4.11Zm0-8.6c-1.95,0-3.54,1.74-3.54,3.89,0,.13,.02,.25,.03,.38l.02,.11c.23,1.94,1.72,3.4,3.49,3.4,1.76,0,3.26-1.46,3.49-3.4v-.13c.03-.12,.05-.24,.05-.37,0-2.14-1.58-3.89-3.54-3.89Z"/>
    <path class="cls-1" d="M90.21,77.56c-3.25,0-6.01-2.79-6.28-6.35-.01-.19-.02-.38-.02-.58,0-3.82,2.82-6.93,6.3-6.93,3.48,0,6.3,3.11,6.31,6.93,0,.2-.01,.39-.03,.58-.27,3.56-3.02,6.35-6.28,6.35Zm0-13.04c-3.06,0-5.55,2.74-5.55,6.1,0,.17,.01,.34,.03,.51,.24,3.14,2.67,5.6,5.53,5.6,2.86,0,5.29-2.46,5.53-5.59,.01-.17,.02-.34,.02-.51,0-3.36-2.49-6.11-5.55-6.1Zm0,10.82c-2.14,0-3.96-1.77-4.23-4.12v-.11c-.04-.16-.05-.32-.05-.49,0-2.6,1.92-4.71,4.29-4.71,2.36,0,4.28,2.11,4.29,4.71,0,.17-.02,.32-.04,.48v.12c-.29,2.35-2.11,4.12-4.25,4.12Zm0-8.6c-1.95,0-3.53,1.74-3.53,3.89,0,.13,.02,.25,.03,.38l.02,.12c.22,1.94,1.72,3.39,3.49,3.39,1.76,0,3.27-1.46,3.49-3.39v-.13c.03-.12,.05-.24,.05-.37,0-2.14-1.58-3.89-3.54-3.89Z"/>
    <path class="cls-1" d="M121.82,47.32h0c-.96,0-1.46-2.41-1.63-3.45-.55-3.29-1.11-3.95-1.23-4.06l-6.46-2.04-.45-3.86,8.54,3.6c1.61,.37,2.02,1.76,2,2.5,.13,.61,.81,4.12,.47,5.42-.23,.89-.59,1.91-1.25,1.91Zm-2.73-8.32c.75,.19,1.34,1.78,1.83,4.72,.21,1.26,.63,2.57,.89,2.76,.06-.06,.27-.32,.53-1.3,.25-.96-.27-3.98-.5-5.06v-.06s0-.06,0-.06c0-.14,.02-1.38-1.46-1.72l-7.43-3.12,.23,1.96,5.92,1.87h0Z"/>
  </g>
  <path class="cls-1" d="M15.48,50.33h-4.43s-1.22-9-1.22-9c0-2.05,.86-2.35,1.38-2.35,1.12,0,2.57,1.45,2.68,2.23,.1,.71,1.48,8.55,1.5,8.63l.09,.49Zm-3.78-.82h2.87c-.31-1.75-1.33-7.55-1.41-8.18-.05-.31-1.14-1.52-1.94-1.52-.42,0-.64,.49-.64,1.46l1.12,8.24Z"/>
  <path class="cls-1" d="M27.77,50.33h-4.43s-1.22-9-1.22-9c0-2.05,.87-2.35,1.38-2.35,1.12,0,2.57,1.45,2.68,2.23,.09,.71,1.48,8.55,1.5,8.63l.09,.49Zm-3.78-.82h2.87c-.31-1.75-1.33-7.55-1.41-8.18-.06-.31-1.14-1.52-1.94-1.52-.42,0-.63,.49-.64,1.46l1.12,8.24Z"/>
  <path class="cls-1" d="M40.07,50.33h-4.43s-1.22-9-1.22-9c0-2.05,.86-2.35,1.38-2.35,1.12,0,2.57,1.45,2.68,2.23,.1,.71,1.48,8.55,1.49,8.63l.09,.49Zm-3.78-.82h2.87c-.31-1.76-1.33-7.55-1.41-8.18-.06-.31-1.14-1.52-1.94-1.52-.42,0-.64,.49-.64,1.46l1.12,8.24Z"/>
  <path class="cls-1" d="M52.36,50.33h-4.43s-1.22-9-1.22-9c0-2.05,.87-2.35,1.39-2.35,1.12,0,2.57,1.45,2.68,2.23,.09,.71,1.48,8.55,1.49,8.63l.09,.49Zm-3.78-.82h2.87c-.31-1.76-1.33-7.55-1.42-8.18-.06-.31-1.14-1.52-1.94-1.52-.42,0-.64,.49-.64,1.46l1.12,8.24Z"/>
  <path class="cls-1" d="M64.66,50.33h-4.43s-1.22-9-1.22-9c0-2.05,.87-2.35,1.39-2.35,1.12,0,2.58,1.45,2.68,2.23,.1,.71,1.48,8.55,1.5,8.63l.09,.49Zm-3.78-.82h2.87c-.31-1.76-1.33-7.55-1.41-8.18-.06-.31-1.14-1.52-1.94-1.52-.43,0-.64,.49-.64,1.46l1.12,8.24Z"/>
  <path class="cls-1" d="M76.95,50.33h-4.42s-1.22-9-1.22-9c0-2.05,.86-2.35,1.38-2.35,1.12,0,2.58,1.45,2.68,2.23,.09,.71,1.48,8.55,1.5,8.63l.08,.49Zm-3.78-.82h2.87c-.31-1.76-1.33-7.55-1.42-8.18-.06-.32-1.14-1.52-1.94-1.53-.43,0-.64,.49-.64,1.46l1.12,8.24Z"/>
  <path class="cls-1" d="M89.25,50.33h-4.43s-1.22-9-1.22-9c0-2.05,.87-2.35,1.38-2.35,1.12,0,2.57,1.45,2.68,2.23,.09,.71,1.48,8.55,1.5,8.63l.09,.49Zm-3.78-.82h2.87c-.31-1.76-1.33-7.55-1.41-8.18-.06-.31-1.14-1.52-1.94-1.53-.42,0-.64,.49-.64,1.46l1.12,8.24Z"/>
  <path class="cls-1" d="M5.37,66.22c-1,0-1.82-.9-1.81-2v-5.5c0-1.1,.81-2,1.81-2,1,0,1.81,.9,1.81,2v5.5c0,1.1-.81,1.99-1.81,2Zm0-8.67c-.59,0-1.07,.53-1.07,1.17v5.5c0,.65,.48,1.17,1.07,1.17,.59,0,1.06-.53,1.07-1.17v-5.5c0-.65-.48-1.17-1.06-1.17Z"/>
</svg>