<?xml version="1.0" encoding="UTF-8"?>
<svg id="OBJECTS" xmlns="http://www.w3.org/2000/svg" viewBox="0 0 110 110">
  <defs>
    <style>
      .cls-1 {
        fill: #6d9973;
      }
    </style>
  </defs>
  <path class="cls-1" d="M52.91,41.07c-.19,22.57-.38,45.14-.57,67.71,0,.54,.84,.55,.85,0,.19-22.57,.38-45.14,.57-67.71,0-.54-.84-.55-.85,0h0Z"/>
  <path class="cls-1" d="M53.05,28.22c.43,.06,.29,2.3,.16,2.81-.05,.25-.26,.9-.53,1.46-.27,.56-.61,1.02-.81,.95-.2-.07-.17-.62-.12-1.21,.06-.59,.15-1.23,.2-1.47,.12-.46,.68-2.6,1.1-2.54Z"/>
  <path class="cls-1" d="M54.73,33.47c-.41,.13-1.31-1.97-1.47-2.47-.16-.49-.63-2.66-.22-2.79,.41-.13,1.29,1.9,1.44,2.4,.16,.49,.65,2.73,.24,2.86Z"/>
  <path class="cls-1" d="M46.96,33.07c-.03-.21,.45-.44,1-.58,.55-.15,1.18-.2,1.41-.19,.23,0,.84,.08,1.37,.24,.53,.16,.98,.4,.95,.61-.04,.21-.52,.29-1.04,.35-.52,.05-1.09,.09-1.3,.08-.21,0-.79-.06-1.33-.13-.53-.08-1.03-.17-1.06-.38Z"/>
  <path class="cls-1" d="M51.15,35.32c-.16,.14-.6-.12-1.07-.37-.47-.26-.98-.5-1.16-.6-.15-.09-.56-.34-1.1-.66-.44-.27-.88-.5-.85-.71,.03-.21,.56-.29,1.15-.2,.59,.07,1.2,.32,1.42,.44,.22,.12,.77,.51,1.15,.99,.4,.46,.62,.97,.46,1.11Z"/>
  <path class="cls-1" d="M46.59,38.5c-.31-.32,1.26-1.94,1.68-2.24,.39-.33,2.3-1.38,2.54-1,.21,.35-1.39,1.71-1.76,2.02-.4,.27-2.18,1.51-2.46,1.21Z"/>
  <path class="cls-1" d="M51.16,37.48c0,.21-.49,.37-1.01,.5-.53,.13-1.07,.25-1.27,.28-.2,.03-.73,.08-1.22,.15-.49,.06-.95,.17-1.07-.01-.11-.17,.22-.59,.73-.89,.5-.31,1.12-.49,1.35-.52,.23-.04,.88-.07,1.44,.02,.56,.08,1.05,.24,1.05,.46Z"/>
  <path class="cls-1" d="M48.27,42.58c-.4-.21,.65-2.44,.94-2.9,.14-.24,.56-.82,.97-1.33,.41-.51,.79-.95,.98-.87,.2,.08,.09,.71-.15,1.34-.23,.63-.56,1.28-.7,1.52-.29,.47-1.68,2.43-2.04,2.24Z"/>
  <path class="cls-1" d="M52.32,39.04c.11,.18-.26,.61-.67,1.06-.42,.45-.88,.93-1.07,1.09-.38,.3-2.06,1.64-2.36,1.35-.31-.3,1.1-1.98,1.51-2.32,.19-.17,.76-.59,1.34-.89,.57-.31,1.14-.48,1.25-.3Z"/>
  <path class="cls-1" d="M53.13,42.44c-.18,.11-.52-.15-.78-.51-.27-.36-.45-.83-.49-1.01-.04-.18-.09-.66,0-1.1,.07-.44,.25-.8,.46-.79,.21,.01,.35,.36,.49,.71,.13,.36,.26,.73,.3,.88,.03,.15,.08,.55,.13,.94,.04,.39,.08,.77-.11,.88Z"/>
  <path class="cls-1" d="M59,30.95c.09,.19-.29,.55-.71,.93-.42,.37-.91,.76-1.11,.89-.19,.12-.74,.42-1.29,.62-.54,.2-1.08,.28-1.17,.09-.09-.19,.27-.54,.68-.91,.41-.36,.88-.74,1.08-.87,.19-.12,.75-.43,1.31-.64,.56-.21,1.11-.3,1.2-.1Z"/>
  <path class="cls-1" d="M55.77,35.36c-.34-.27,.91-2.17,1.21-2.56,.15-.2,.6-.69,1.01-1.13,.42-.43,.81-.82,1-.72,.19,.1,.06,.67-.2,1.25-.26,.58-.64,1.16-.79,1.37-.32,.42-1.9,2.04-2.23,1.78Z"/>
  <path class="cls-1" d="M60.32,35.37c-.07,.4-1.86,.43-2.25,.44-.39-.04-2.12-.22-2.15-.62-.04-.44,1.77-.7,2.2-.66,.43,0,2.27,.41,2.2,.85Z"/>
  <path class="cls-1" d="M55.74,37.4c-.17-.39,1.63-1.43,2.06-1.61,.43-.19,2.35-.8,2.52-.41,.17,.39-1.57,1.4-2,1.59-.43,.19-2.41,.83-2.58,.44Z"/>
  <path class="cls-1" d="M59.6,39.62c-.21,.37-1.92-.37-2.28-.58-.36-.21-1.8-1.29-1.59-1.66,.21-.37,1.87,.34,2.23,.55,.36,.21,1.85,1.32,1.64,1.69Z"/>
  <path class="cls-1" d="M55.03,39.48c-.04-.45,1.84-.72,2.26-.68,.43,0,2.2,.31,2.17,.74-.03,.42-1.8,.54-2.2,.54-.41-.03-2.19-.2-2.23-.6Z"/>
  <path class="cls-1" d="M56.66,43.99c-.41,.13-1.2-1.71-1.34-2.14-.13-.43-.5-2.34-.09-2.46,.41-.13,1.18,1.65,1.32,2.08,.13,.43,.52,2.4,.11,2.52Z"/>
  <path class="cls-1" d="M53.29,40.99c.1-.19,.61-.1,1.12,.15,.51,.24,1,.6,1.16,.75,.16,.15,.55,.6,.82,1.05,.28,.46,.44,.92,.28,1.05-.32,.25-1.66-.92-1.97-1.16-.15-.14-.52-.54-.86-.92-.33-.38-.65-.73-.55-.92Z"/>
  <path class="cls-1" d="M42.02,36.24c-.21-.39,.98-1.17,1.29-1.27,.3-.13,1.66-.32,1.76,.11,.1,.4-1.05,.98-1.31,1.1-.28,.09-1.55,.43-1.75,.06Z"/>
  <path class="cls-1" d="M43.48,42.51c-.17-.12-.09-.52,.12-.89,.2-.38,.51-.74,.64-.85,.13-.11,.52-.36,.92-.49,.4-.13,.79-.15,.88,.04,.1,.19-.12,.48-.35,.77-.24,.28-.5,.56-.61,.66-.11,.09-.44,.31-.76,.51-.33,.19-.66,.37-.83,.25Z"/>
  <path class="cls-1" d="M47.65,48.29c-.34-.24,.36-1.72,.52-2.05,.19-.31,1.1-1.61,1.48-1.44,.4,.18-.15,1.75-.36,2.08-.18,.35-1.28,1.66-1.64,1.41Z"/>
  <path class="cls-1" d="M43.1,28.81c.01-.21,.36-.35,.76-.36,.4-.02,.83,.1,.97,.16,.15,.06,.5,.3,.74,.61,.25,.3,.37,.64,.22,.79-.15,.15-.46,.08-.77,0-.31-.09-.61-.18-.72-.23-.11-.05-.39-.23-.67-.4-.27-.18-.55-.36-.53-.58Z"/>
  <path class="cls-1" d="M49.2,25.8c.42-.06,.8,.95,.83,1.19,.04,.24-.02,1.28-.44,1.35-.42,.06-.79-.91-.83-1.15-.04-.24,.02-1.32,.44-1.38Z"/>
  <path class="cls-1" d="M58.02,24.51c.33,.27-.28,1.37-.45,1.59-.18,.22-1.1,1.03-1.43,.76-.33-.27,.25-1.34,.43-1.56,.18-.22,1.12-1.06,1.45-.79Z"/>
  <path class="cls-1" d="M63.6,28.98c.07,.4-.88,.9-1.09,1.01-.22,.06-1.23,.34-1.45,0-.24-.38,.7-1.11,.98-1.19,.26-.13,1.48-.25,1.56,.19Z"/>
  <path class="cls-1" d="M64.4,33.72c0,.43-1.06,.63-1.29,.63-.24,0-1.25-.23-1.25-.65,0-.43,1.02-.63,1.26-.63,.24,0,1.29,.23,1.28,.65Z"/>
  <path class="cls-1" d="M65.03,38.96c-.05,.42-1.4,.48-1.7,.44s-1.56-.4-1.51-.83c.05-.42,1.36-.48,1.66-.45,.3,.04,1.6,.41,1.55,.83Z"/>
  <path class="cls-1" d="M63.82,43.02c-.22,.37-1.22,.03-1.42-.09-.2-.12-.95-.81-.74-1.18,.22-.37,1.19-.05,1.39,.07,.2,.12,.98,.83,.77,1.2Z"/>
  <path class="cls-1" d="M60.41,45.87c-.33,.3-1.04-.28-1.14-.47-.13-.17-.32-1.04,.09-1.2,.39-.15,.9,.4,1,.53,.07,.15,.35,.87,.05,1.15Z"/>
  <path class="cls-1" d="M57.75,49.09c-.21,.04-.43-.25-.64-.57-.2-.32-.39-.67-.45-.81-.08-.28-.47-1.49-.13-1.71,.18-.11,.5,.1,.77,.4,.27,.3,.49,.68,.55,.84,.06,.15,.17,.6,.18,1.01,.01,.42-.07,.8-.28,.84Z"/>
  <g>
    <path class="cls-1" d="M53.55,20.73s-.12-.23-.28-.67c-.08-.22-.17-.49-.25-.81-.08-.32-.18-.68-.25-1.08-.32-1.6-.44-3.83-.33-6.16,.09-2.33,.31-4.75,.33-6.83,.02-1.04-.02-1.99-.06-2.79-.02-.39-.11-.7-.25-.82-.15-.14-.34-.14-.38-.1-.07,.03-.14,.2-.15,.5,0,.32-.01,.69-.02,1.08,0,.8,0,1.73,.01,2.75,.04,2.03,.17,4.39,.38,6.63,.21,2.24,.5,4.35,.74,5.9,.24,1.55,.41,2.54,.35,2.56-.03,0-.1-.24-.21-.67-.11-.43-.26-1.06-.42-1.84-.32-1.54-.68-3.65-.94-5.89-.27-2.24-.44-4.62-.5-6.66-.03-1.02-.05-1.97-.04-2.77,0-.4,0-.77,0-1.1,0-.18,.02-.36,.08-.54,.06-.18,.18-.37,.35-.47,.35-.24,.86-.14,1.18,.17,.35,.35,.4,.83,.43,1.24,.04,.83,.07,1.8,.03,2.85-.05,2.11-.31,4.53-.46,6.84-.16,2.3-.11,4.5,.13,6.09,.23,1.59,.56,2.58,.5,2.61Z"/>
    <path class="cls-1" d="M52.33,8.5c-.21,.01-.5-2.85-.54-3.5-.04-.65-.1-3.43,.11-3.45,.21-.01,.49,2.76,.53,3.41,.04,.65,.11,3.53-.1,3.54Z"/>
    <path class="cls-1" d="M51.56,6.47c-.23-.05,.07-1.6,.21-1.93,.09-.35,.78-1.72,.98-1.62,.18,.09-.28,1.49-.37,1.82-.13,.32-.62,1.76-.82,1.73Z"/>
    <path class="cls-1" d="M52.57,3.08c-.19,.04-.48-.26-.56-.31-.04-.08-.32-.37-.27-.56,.04-.1,.19-.13,.36-.08,.17,.04,.33,.15,.37,.2,.05,.05,.16,.21,.19,.39,.04,.17,0,.33-.1,.37Z"/>
    <path class="cls-1" d="M51.82,6.79c-.11-.02-.08-.55-.05-1.13,.04-.7,.07-1.26,.09-1.45,.07-.46,.2-2.47,.39-2.49,.24-.01,.33,2.06,.25,2.54-.02,.24-.11,.89-.25,1.47-.14,.58-.32,1.08-.43,1.06Z"/>
    <path class="cls-1" d="M52.14,10.02c-.21,0-.21-2.53-.18-3.1,.03-.57,.24-3,.45-2.99,.21,0,.21,2.45,.19,3.02-.03,.57-.25,3.08-.46,3.07Z"/>
    <path class="cls-1" d="M52.25,13.08c-.1,0-.24-.69-.32-1.47-.09-.78-.11-1.65-.11-1.97-.02-.64,.25-3.37,.48-3.34,.19,.02,.13,2.72,.16,3.35-.04,.63-.02,3.42-.21,3.44Z"/>
    <path class="cls-1" d="M52.74,7.49c.21,.01,.22,1.77,.19,2.16-.02,.4-.23,2.08-.44,2.07-.21-.01-.22-1.71-.2-2.11,.02-.4,.24-2.14,.45-2.12Z"/>
    <path class="cls-1" d="M52.35,7.99c-.23,0-.2-1.19-.13-1.45,.03-.27,.43-1.34,.65-1.26,.19,.07,.01,1.14-.02,1.38-.06,.24-.3,1.34-.5,1.33Z"/>
    <path class="cls-1" d="M52.57,5.12c-.21-.03-.24-.54-.22-.65,.02-.11,.2-.57,.41-.53,.21,.03,.24,.52,.22,.63-.02,.11-.2,.58-.41,.55Z"/>
    <path class="cls-1" d="M52.4,2.23c-.19-.09-.28-.27-.3-.29,0-.03,.02-.23,.15-.39,.08-.07,.2-.06,.3,0,.1,.07,.17,.19,.18,.23,.01,.05,0,.19-.06,.29-.06,.11-.17,.18-.27,.14Z"/>
    <path class="cls-1" d="M52.75,3.93c-.21,.01-.4-1.1-.41-1.35-.02-.25,.02-1.34,.23-1.36,.21-.01,.39,1.06,.41,1.31,.02,.25-.01,1.38-.23,1.39Z"/>
    <path class="cls-1" d="M52.69,4.26c-.21-.05-.24-.36-.22-.42s.19-.31,.4-.26c.21,.05,.24,.35,.23,.41-.02,.06-.19,.32-.4,.26Z"/>
    <path class="cls-1" d="M53.64,21.41c-.1,.02-.44-1.1-.72-2.38-.29-1.28-.5-2.7-.56-3.23-.07-.53-.18-1.93-.2-3.2-.03-1.27,.04-2.41,.14-2.41,.11,0,.2,1.13,.34,2.38,.13,1.25,.3,2.63,.36,3.15,.06,.52,.21,1.94,.39,3.22,.17,1.29,.35,2.44,.25,2.46Z"/>
  </g>
  <g>
    <path class="cls-1" d="M61.98,21.74s.4-.73,1.12-1.79c.72-1.06,1.71-2.5,2.75-4,1.06-1.51,2.17-3.08,3.11-4.43,.48-.68,.92-1.28,1.15-1.83,.11-.26,.21-.56,.2-.7-.01-.12-.03-.1-.13-.13-.09,0-.19,.01-.34,.16-.14,.13-.31,.39-.5,.64-.38,.51-.8,1.11-1.26,1.77-.91,1.33-1.9,2.9-2.78,4.45-.88,1.54-1.64,3.04-2.19,4.15-.55,1.11-.88,1.84-.94,1.81-.05-.02,.21-.78,.68-1.93,.48-1.15,1.18-2.69,2.02-4.27,.84-1.58,1.81-3.2,2.7-4.55,.45-.68,.87-1.29,1.25-1.81,.19-.26,.33-.49,.56-.72,.21-.23,.57-.38,.85-.34,.14,.02,.31,.06,.46,.2,.16,.14,.24,.36,.24,.56,0,.39-.13,.65-.27,.98-.28,.64-.76,1.26-1.24,1.93-.98,1.33-2.12,2.87-3.21,4.36-1.09,1.47-2.14,2.87-2.92,3.88-.78,1.02-1.3,1.66-1.34,1.63Z"/>
    <path class="cls-1" d="M69.19,11.45c-.17-.1,.14-1.08,.18-1.3,.09-.21,.37-1.16,.57-1.15,.23,.02,.15,1.1,.05,1.33-.05,.25-.59,1.23-.79,1.12Z"/>
    <path class="cls-1" d="M68.45,12.21c-.17-.1,.35-1.35,.45-1.64,.14-.27,.65-1.48,.84-1.43,.22,.06-.11,1.39-.25,1.68-.1,.31-.84,1.51-1.04,1.4Z"/>
    <path class="cls-1" d="M67.55,13.25c-.19-.1,.38-1.34,.53-1.6,.15-.27,.88-1.36,1.07-1.25,.19,.1-.36,1.3-.51,1.56-.15,.27-.9,1.39-1.09,1.29Z"/>
    <path class="cls-1" d="M65.97,15.28c-.16-.1,.66-1.82,.82-2.22,.21-.38,1.01-2.04,1.19-1.98,.22,.08-.4,1.86-.61,2.25-.17,.41-1.21,2.07-1.4,1.94Z"/>
    <path class="cls-1" d="M64.92,17.15c-.15-.12,.42-1.21,.52-1.46,.15-.23,.66-1.3,.85-1.26,.23,.06-.11,1.29-.27,1.54-.11,.28-.91,1.33-1.1,1.18Z"/>
    <path class="cls-1" d="M63.38,19.31c-.15-.13,.56-1.28,.7-1.55,.18-.25,.88-1.36,1.06-1.28,.21,.09-.32,1.35-.51,1.62-.15,.29-1.07,1.36-1.25,1.21Z"/>
    <path class="cls-1" d="M61.72,22.31c-.08-.07,.28-.6,.64-1.21,.37-.6,.73-1.28,.87-1.53,.14-.25,.51-.9,.82-1.51,.32-.61,.57-1.17,.67-1.14,.1,.03,0,.65-.23,1.32-.22,.67-.55,1.38-.7,1.64-.14,.26-.57,.94-1.04,1.5-.46,.56-.95,1-1.03,.93Z"/>
    <path class="cls-1" d="M67.24,14.07c-.21,.04-.4-.37-.42-.47s0-.54,.21-.58c.21-.04,.4,.36,.42,.46,.02,.1,0,.55-.21,.59Z"/>
    <path class="cls-1" d="M67.01,14.55c-.14,.16-.4,.07-.45,.03-.04-.04-.15-.28,0-.44,.14-.16,.4-.07,.44-.03,.04,.04,.16,.29,.01,.45Z"/>
    <path class="cls-1" d="M67.7,13.45c-.2,.05-.4-.04-.44-.04-.02-.03-.16-.19-.18-.39,0-.11,.11-.18,.24-.2,.13-.02,.27,.03,.31,.06,.04,.03,.14,.14,.17,.27,.03,.13,0,.26-.1,.29Z"/>
    <path class="cls-1" d="M68.5,11.53c-.14,.16-.4,.07-.44,.03-.04-.04-.15-.28,0-.44,.14-.16,.4-.07,.44-.03,.04,.04,.16,.29,.01,.45Z"/>
    <path class="cls-1" d="M69.48,10.81c-.15,.15-.47-.03-.53-.08-.06-.06-.21-.37-.06-.52,.15-.15,.47,.02,.52,.07s.22,.38,.07,.53Z"/>
    <path class="cls-1" d="M69.77,10c-.17,.13-.38,.03-.4,0-.03-.04-.05-.25,.12-.38,.17-.13,.37-.04,.4,0,.03,.04,.06,.26-.12,.39Z"/>
    <path class="cls-1" d="M70.13,9.89c-.21,.04-.39-.38-.41-.48-.02-.1,.02-.54,.23-.57,.21-.04,.39,.37,.41,.47,.02,.1-.02,.55-.23,.59Z"/>
    <path class="cls-1" d="M68.6,12.05c-.19-.1,.32-1.26,.46-1.51,.14-.25,.82-1.27,1-1.17,.19,.1-.3,1.23-.44,1.48-.14,.25-.84,1.31-1.02,1.2Z"/>
    <path class="cls-1" d="M67.03,14.7c-.1,.02-.22-.12-.29-.32-.07-.19-.08-.42-.07-.5,0-.08,.07-.29,.18-.46,.11-.17,.25-.28,.35-.24,.17,.1,.1,.65,.11,.77-.04,.12-.1,.68-.28,.74Z"/>
    <path class="cls-1" d="M66.8,14.85c-.21-.03-.3-.19-.29-.22,0-.03,.13-.15,.34-.12,.21,.03,.3,.18,.29,.21,0,.03-.13,.15-.34,.12Z"/>
  </g>
  <path class="cls-1" d="M45.25,22.22s-.07-.21-.24-.53c-.17-.33-.51-.72-.98-1.19-.23-.24-.48-.5-.71-.83-.23-.33-.39-.73-.53-1.13-.25-.81-.63-1.6-1.2-2.33-1.11-1.47-2.76-2.57-4.18-3.47-.72-.46-1.37-.87-1.94-1.26-.3-.23-.56-.48-.67-.89-.11-.45,.24-.84,.53-.91,.29-.09,.58-.05,.87,.05,.28,.11,.55,.23,.86,.38,.61,.3,1.27,.74,1.91,1.3,1.3,1.11,2.46,2.71,3.38,4.31,.93,1.59,1.62,3.18,2.17,4.34,.54,1.16,.86,1.91,.81,1.93-.05,.02-.46-.69-1.06-1.81-.61-1.11-1.37-2.68-2.33-4.22-.95-1.54-2.11-3.07-3.36-4.09-.62-.51-1.24-.92-1.8-1.19-.28-.13-.56-.26-.77-.33-.21-.07-.4-.07-.48-.04-.07,.03-.12,.07-.1,.17,.02,.12,.19,.34,.41,.51,.52,.37,1.18,.8,1.89,1.26,1.41,.93,3.11,2.1,4.24,3.69,.57,.77,.96,1.68,1.18,2.49,.12,.4,.25,.77,.45,1.07,.19,.31,.42,.58,.63,.83,.43,.49,.77,.95,.91,1.31,.14,.37,.12,.59,.1,.59Z"/>
  <path class="cls-1" d="M43.67,19.66c-.21,.05-.51-.69-.56-.87-.05-.17-.14-.95,.07-1,.21-.05,.51,.67,.55,.84,.05,.17,.14,.97-.06,1.03Z"/>
  <path class="cls-1" d="M44.02,20.17c-.2,.07-.51-.45-.55-.58-.05-.13-.14-.71,.06-.78,.2-.07,.5,.43,.55,.56,.05,.13,.15,.73-.05,.8Z"/>
  <path class="cls-1" d="M44.16,20.35c-.2,.06-.37-.11-.39-.16-.01-.05,.02-.28,.23-.35,.2-.06,.37,.11,.39,.16,.02,.05-.02,.29-.22,.36Z"/>
  <path class="cls-1" d="M45.4,22.71c-.11,.01-.24-.45-.44-.93-.18-.49-.44-1-.53-1.19-.09-.19-.32-.69-.57-1.14-.24-.45-.5-.84-.42-.91,.07-.07,.46,.22,.81,.63,.36,.41,.66,.93,.76,1.14,.1,.2,.32,.78,.41,1.34,.1,.55,.08,1.05-.03,1.06Z"/>
  <path class="cls-1" d="M37.47,12.17c-.13,.2-1.23-.58-1.42-.82-.24-.2-.94-1.29-.74-1.42,.16-.1,.99,.79,1.21,.97,.17,.22,1.06,1.11,.96,1.27Z"/>
  <path class="cls-1" d="M38.29,12.53c-.15,.15-1.05-.63-1.24-.83-.19-.19-.9-1.1-.75-1.25,.15-.15,1.03,.61,1.21,.8,.19,.19,.93,1.13,.78,1.27Z"/>
  <path class="cls-1" d="M39.65,14.04c-.18,.08-.89-.97-1.08-1.19-.14-.25-.86-1.25-.73-1.39,.16-.17,1.1,.75,1.26,1.02,.2,.24,.77,1.46,.56,1.56Z"/>
  <path class="cls-1" d="M41.33,14.75c-.16,.14-1.02-.7-1.19-.91-.17-.21-.84-1.16-.68-1.29,.16-.14,.99,.67,1.17,.88,.17,.21,.86,1.18,.7,1.32Z"/>
  <path class="cls-1" d="M38.66,12.84c.03-.1,.43-.06,.85,.09,.43,.15,.85,.42,.99,.53,.15,.11,.5,.45,.74,.81,.25,.36,.37,.73,.28,.79-.09,.06-.35-.21-.65-.47-.3-.27-.64-.52-.77-.62-.13-.1-.47-.38-.81-.61-.34-.23-.67-.42-.64-.52Z"/>
  <path class="cls-1" d="M39.88,12.94c-.09,.19-.79-.01-.93-.08-.15-.07-.73-.46-.64-.65,.09-.19,.77,0,.91,.07,.15,.07,.75,.47,.66,.66Z"/>
  <path class="cls-1" d="M38.17,11.65c-.18,.09-.5-.13-.57-.16-.05-.06-.33-.32-.28-.51,.06-.22,.58-.09,.67,0,.12,.06,.38,.55,.18,.66Z"/>
  <path class="cls-1" d="M36.81,11.13c-.21,0-.32-.21-.32-.26,0-.05,.11-.25,.32-.25,.21,0,.32,.21,.32,.25,0,.05-.11,.26-.32,.25Z"/>
  <path class="cls-1" d="M37.83,11.81c-.12,.17-.88-.24-1.04-.35-.16-.11-.76-.69-.64-.86,.12-.17,.86,.22,1.01,.34,.16,.11,.78,.7,.66,.87Z"/>
  <g>
    <path class="cls-1" d="M38.55,29.36c-.02,.06-.72-.17-1.84-.34-1.12-.17-2.66-.22-4.27-.02-1.61,.18-3.27,.58-4.69,.96-.71,.2-1.36,.39-1.91,.54-.14,.02-.9,.33-1.11,.2-.01-.21-.04-.38-.02-.57,0-.17,.09-.4,.11-.46,.15-.37,.52-.84,1.1-1.11,.58-.28,1.27-.37,1.98-.48,1.45-.2,3.15-.26,4.75-.11,1.6,.14,3.09,.47,4.16,.81,1.07,.33,1.71,.64,1.7,.69-.02,.06-.7-.16-1.77-.42-1.07-.26-2.55-.52-4.12-.6-1.57-.1-3.23,0-4.63,.23-.7,.11-1.35,.22-1.79,.45-.45,.22-.69,.55-.79,.79-.03,.09-.02,.04-.02,.06h0s-.13,.04,.26-.07c.56-.16,1.21-.34,1.93-.52,1.44-.36,3.14-.72,4.79-.85,1.65-.15,3.24-.02,4.37,.23,1.13,.25,1.81,.58,1.79,.61Z"/>
    <path class="cls-1" d="M25.46,30.18c-.09,.05-.22,0-.32-.13-.1-.12-.16-.28-.16-.34-.04-.13,.13-.63,.35-.56,.19,.07,.26,.41,.29,.48,0,.07,.01,.43-.15,.55Z"/>
    <path class="cls-1" d="M26.36,29.82c-.19,.1-.43-.14-.46-.2s-.07-.38,.12-.48c.19-.1,.42,.13,.45,.19,.03,.06,.07,.39-.12,.49Z"/>
    <path class="cls-1" d="M26.97,29.52c-.2,.08-.44-.23-.47-.31-.03-.08-.06-.46,.14-.54,.2-.08,.43,.22,.46,.3,.03,.08,.07,.47-.13,.55Z"/>
    <path class="cls-1" d="M27.68,29.35c0,.21-.7,.32-.86,.31-.16,0-.83-.12-.83-.33,0-.21,.68-.32,.84-.31,.16,0,.86,.12,.86,.33Z"/>
    <path class="cls-1" d="M28.33,29c-.2-.07-.23-.31-.22-.36s.19-.21,.39-.15c.2,.07,.23,.31,.22,.35-.02,.05-.19,.22-.39,.15Z"/>
    <path class="cls-1" d="M29.38,29.02c0,.21-.98,.31-1.2,.31-.22,0-1.17-.12-1.17-.33s.95-.31,1.17-.31c.22,0,1.2,.12,1.2,.33Z"/>
    <path class="cls-1" d="M28.7,29.19c-.04-.19,.4-.51,.48-.59,.11-.05,.54-.35,.71-.25,.2,.13-.18,.7-.33,.77-.06,.05-.26,.14-.45,.17-.19,.03-.37,0-.4-.1Z"/>
    <path class="cls-1" d="M30.07,28.53c.05,.21-.84,.51-1.05,.56-.21,.05-1.11,.13-1.16-.08-.05-.21,.81-.51,1.02-.55,.21-.05,1.14-.14,1.19,.07Z"/>
    <path class="cls-1" d="M30.22,28.33c-.06-.09,0-.22,.13-.32,.12-.1,.28-.16,.34-.16,.06,0,.23,0,.36,.08,.14,.07,.23,.18,.19,.28-.08,.18-.41,.25-.48,.28-.07-.01-.42,0-.54-.15Z"/>
    <path class="cls-1" d="M31.58,28.52c.06,.23-.58,.39-.73,.35-.16,0-.73-.28-.63-.49,.09-.18,.59-.14,.7-.15,.1,.03,.61,.1,.67,.29Z"/>
    <path class="cls-1" d="M32.26,28.54c-.19,.09-.36,0-.37-.03-.02-.03,.02-.22,.21-.31,.19-.09,.35,0,.37,.03,.02,.03-.01,.22-.2,.31Z"/>
    <path class="cls-1" d="M31.92,28.35c-.1-.19,0-.36,.03-.37,.03-.02,.22,.01,.31,.2,.1,.19,0,.35-.02,.37-.03,.02-.22-.01-.32-.2Z"/>
    <path class="cls-1" d="M30.06,28.52c-.07-.2,.32-.44,.42-.47,.1-.03,.54-.06,.6,.14,.07,.2-.31,.44-.4,.47-.1,.03-.55,.06-.62-.14Z"/>
    <path class="cls-1" d="M29.7,28.83c-.15-.15-.08-.37-.05-.4,.03-.03,.25-.08,.39,.07,.15,.15,.08,.36,.05,.4-.03,.03-.25,.09-.4-.06Z"/>
    <path class="cls-1" d="M26.32,29.83c.07,.23-.45,.38-.58,.33-.13,0-.57-.3-.44-.49,.12-.16,.47-.14,.54-.15,.07,.03,.42,.11,.48,.3Z"/>
    <path class="cls-1" d="M29.54,28.65c.05,.09-.06,.24-.25,.32-.18,.08-.41,.07-.49,.05-.08-.02-.28-.11-.4-.26-.13-.15-.16-.33-.08-.39,.09-.07,.22-.03,.34-.01,.18,.02,.27,.03,.29,.04,.02,0,.11,.04,.28,.09,.12,.04,.26,.06,.31,.16Z"/>
    <path class="cls-1" d="M38.08,39.51c0,.07-.84,.08-2.07,.46-1.22,.37-2.81,1.16-4.15,2.4-1.35,1.23-2.45,2.84-3.17,4.32-.18,.37-.34,.72-.5,1.08-.17,.36-.37,.72-.71,.98-.34,.24-.74,.33-1.11,.24-.38-.1-.62-.41-.69-.65-.32-.99,.28-2.42,1.38-3.69,1.09-1.27,2.6-2.52,4.22-3.38,1.62-.87,3.3-1.37,4.55-1.57,1.26-.2,2.08-.16,2.08-.12,0,.06-.8,.12-2.02,.4-1.22,.27-2.83,.82-4.37,1.71-1.55,.88-2.97,2.12-4,3.35-.51,.61-.89,1.23-1.1,1.79-.2,.56-.25,1.07-.15,1.29,.04,.12,.12,.21,.26,.25,.14,.04,.38,0,.57-.13,.4-.27,.64-1.07,1.04-1.82,.78-1.51,1.94-3.17,3.39-4.4,1.43-1.25,3.11-2.01,4.39-2.31,.64-.16,1.18-.21,1.56-.22,.37-.01,.59,.01,.59,.03Z"/>
    <path class="cls-1" d="M26.68,48.47c-.21,.02-.39-.74-.41-.91-.02-.17,.02-.93,.23-.95,.21-.02,.39,.71,.41,.89,.02,.17-.02,.95-.23,.97Z"/>
    <path class="cls-1" d="M27.06,47.95c-.21,.1-.57-.58-.59-.76-.06-.17-.02-.92,.21-.92,.2,0,.37,.64,.41,.78,.01,.15,.14,.81-.04,.9Z"/>
    <path class="cls-1" d="M27.57,46.61c-.22,.05-.45-.88-.44-1.1-.03-.22,.13-1.13,.35-1.1,.2,.03,.27,.88,.29,1.08,0,.2,0,1.08-.2,1.13Z"/>
    <path class="cls-1" d="M27.69,46.29c-.21,.04-.39-.29-.4-.37-.02-.08,.02-.44,.23-.48,.21-.04,.38,.28,.4,.35,.02,.08-.02,.45-.23,.49Z"/>
    <path class="cls-1" d="M28.05,45.27c-.16-.11,.2-1.04,.24-1.26,.1-.2,.4-1.12,.59-1.1,.24,.02,.13,1.08,.02,1.32-.04,.12-.18,.43-.37,.67-.18,.25-.39,.43-.48,.38Z"/>
    <path class="cls-1" d="M30.57,42.51c.13,.17-.89,1.07-1.14,1.26-.25,.18-1.36,.89-1.49,.72-.13-.17,.86-1.05,1.1-1.23,.25-.18,1.39-.91,1.52-.74Z"/>
    <path class="cls-1" d="M29.13,43.79c-.18-.14,.59-1.2,.81-1.41,.2-.23,1.19-1.02,1.34-.85,.13,.15-.69,1.07-.87,1.29-.21,.2-1.11,1.09-1.27,.97Z"/>
    <path class="cls-1" d="M29.78,43.6c-.15-.15,.76-1.2,.98-1.43,.22-.22,1.25-1.09,1.4-.94,.15,.15-.72,1.17-.95,1.39-.22,.22-1.28,1.12-1.43,.97Z"/>
    <path class="cls-1" d="M28.21,46.62c-.19-.1,.7-2.04,.92-2.46,.22-.43,1.27-2.21,1.46-2.11,.19,.1-.66,1.98-.89,2.4-.22,.43-1.3,2.27-1.49,2.17Z"/>
    <path class="cls-1" d="M27.54,47.3c-.18-.11,.08-.73,.16-.86,.08-.13,.51-.61,.69-.49,.18,.11-.07,.71-.15,.84-.08,.13-.52,.63-.7,.51Z"/>
    <path class="cls-1" d="M27.55,45.6c.09,.06,.03,.3-.03,.54-.08,.35-.13,.55-.14,.61-.02,.05-.08,.25-.19,.58-.08,.23-.14,.46-.25,.47-.1,0-.2-.23-.23-.51-.03-.28,.01-.59,.05-.7,.03-.11,.15-.41,.33-.64,.17-.24,.38-.4,.46-.34Z"/>
    <path class="cls-1" d="M27.18,47.79c-.09-.06,0-.37,.1-.72,.13-.46,.21-.76,.23-.86,.03-.09,.12-.38,.27-.82,.11-.33,.2-.64,.31-.63,.1,0,.17,.34,.16,.71,0,.37-.08,.78-.13,.93-.04,.15-.2,.55-.41,.87-.2,.33-.45,.58-.54,.52Z"/>
    <path class="cls-1" d="M27.86,46.96c-.21-.02-.23-.87-.21-1.06s.22-.99,.43-.96c.21,.02,.23,.85,.21,1.04-.02,.19-.22,1.01-.43,.99Z"/>
    <path class="cls-1" d="M28.57,44.93c.02,.1-.06,.2-.19,.23-.13,.03-.26-.01-.3-.04-.04-.03-.13-.14-.15-.26-.02-.13,.04-.24,.14-.26,.21-.02,.35-.01,.37-.01,0,.02,.07,.15,.14,.35Z"/>
    <path class="cls-1" d="M28.74,44.6c-.15,.15-.37,.08-.4,.05-.03-.03-.09-.24,.06-.39,.15-.15,.36-.09,.39-.06,.03,.03,.09,.25-.06,.4Z"/>
    <path class="cls-1" d="M29.08,44.94c-.21,0-.32-.42-.32-.52,0-.09,.11-.5,.33-.5s.32,.41,.32,.5c0,.09-.11,.51-.33,.51Z"/>
    <path class="cls-1" d="M28.75,44.92c-.08,.2-.47,.16-.55,.13-.08-.03-.38-.27-.3-.47,.08-.2,.46-.16,.54-.13,.08,.03,.39,.27,.31,.47Z"/>
    <path class="cls-1" d="M29.04,45.12c-.2,.08-.44-.23-.47-.31-.03-.08-.06-.46,.14-.54,.2-.08,.43,.22,.46,.3s.07,.47-.13,.55Z"/>
    <path class="cls-1" d="M28.56,46.29c-.19,.1-.56-.34-.62-.45-.06-.11-.23-.64-.05-.74,.19-.1,.55,.32,.61,.43,.06,.11,.24,.66,.06,.76Z"/>
    <path class="cls-1" d="M27.02,47.63c-.21,0-.34-.41-.34-.5,0-.09,.09-.5,.3-.51,.21,0,.34,.39,.34,.49s-.09,.52-.3,.53Z"/>
    <path class="cls-1" d="M26.51,48.3c-.17,.13-.47-.09-.51-.15-.05-.06-.16-.4,.01-.53s.46,.08,.51,.15c.05,.06,.17,.41,0,.54Z"/>
    <path class="cls-1" d="M27.27,46.61c.23-.03,.37,.71,.34,.89,0,.18-.24,.87-.46,.81-.19-.06-.18-.71-.18-.85,.03-.14,.11-.81,.31-.84Z"/>
    <path class="cls-1" d="M28.23,45.6c-.09,.19-.47,.14-.55,.11-.08-.03-.37-.28-.28-.48,.09-.19,.46-.15,.54-.11s.38,.29,.29,.48Z"/>
    <path class="cls-1" d="M28.74,44.94c-.05,.21-.36,.24-.42,.22s-.31-.19-.25-.4c.05-.21,.35-.24,.41-.22,.06,.02,.32,.19,.26,.4Z"/>
    <path class="cls-1" d="M32.5,40.9c-.1,.19-.29,.21-.32,.2-.03-.02-.12-.18-.02-.37,.1-.19,.28-.22,.31-.2,.03,.02,.12,.18,.02,.37Z"/>
    <path class="cls-1" d="M42.09,46.88c.04,.06-.64,.34-1.25,1.21-.64,.85-1.1,2.24-1.52,3.73-.45,1.5-.92,3.06-1.32,4.39-.1,.34-.2,.66-.29,.96-.09,.29-.17,.61-.35,.9-.16,.29-.56,.55-.91,.49-.37-.04-.58-.28-.69-.44-.12-.17-.21-.38-.27-.63-.07-.25-.06-.55-.04-.82,.03-.57,.18-1.22,.43-1.88,.51-1.32,1.35-2.69,2.25-3.92,.91-1.22,1.92-2.27,2.71-2.96,.79-.7,1.36-1.08,1.39-1.04,.04,.05-.47,.49-1.2,1.24-.73,.75-1.67,1.81-2.51,3.04-.84,1.23-1.63,2.6-2.08,3.85-.44,1.24-.48,2.41-.16,2.76,.06,.09,.15,.16,.23,.17,.1,0,.2-.02,.31-.2,.12-.17,.19-.44,.29-.74,.1-.3,.2-.62,.31-.95,.43-1.32,.94-2.87,1.43-4.35,.47-1.47,1.01-2.91,1.76-3.76,.36-.43,.73-.71,1.01-.86,.28-.15,.45-.19,.46-.18Z"/>
    <path class="cls-1" d="M36.43,58.04c-.2,.06-.57-.75-.63-.94s-.21-1.04,0-1.1c.2-.06,.56,.72,.62,.91,.06,.19,.22,1.07,.02,1.13Z"/>
    <path class="cls-1" d="M37.16,55.88c.09,.07,.02,.28-.05,.51-.1,.32-.16,.51-.18,.56-.09,.16-.35,.92-.54,.92-.1,0-.17-.24-.16-.5,0-.26,.07-.55,.11-.65,.04-.1,.18-.37,.36-.57,.18-.2,.38-.34,.47-.27Z"/>
    <path class="cls-1" d="M37.3,56.52c-.1,0-.21-.29-.23-.64-.03-.35,.02-.73,.06-.87,.03-.14,.16-.49,.34-.77,.18-.29,.4-.5,.49-.44,.09,.06,.02,.33-.05,.63-.09,.41-.14,.66-.16,.74-.02,.08-.09,.34-.2,.75-.08,.3-.14,.59-.25,.6Z"/>
    <path class="cls-1" d="M36.63,57.18c-.21,.09-.55-.59-.57-.77-.05-.17-.03-.91,.2-.91,.2,0,.38,.63,.43,.78,.02,.15,.13,.82-.05,.91Z"/>
    <path class="cls-1" d="M36.97,56.18c-.21,.04-.48-.77-.51-.96-.04-.19-.09-1.02,.12-1.06,.21-.04,.47,.75,.51,.94,.04,.19,.09,1.04-.12,1.09Z"/>
    <path class="cls-1" d="M37.1,55.01c-.21,.05-.45-.48-.49-.61s-.07-.69,.14-.75c.21-.05,.45,.46,.48,.59s.07,.71-.14,.77Z"/>
    <path class="cls-1" d="M37.84,53.47c-.21,.06-.48-.54-.52-.68-.04-.14-.1-.77,.1-.83,.21-.06,.48,.52,.51,.66,.04,.14,.11,.79-.1,.85Z"/>
    <path class="cls-1" d="M38,54.16c-.21,.02-.4-.95-.41-1.18-.02-.22,.02-1.18,.23-1.19,.21-.02,.39,.92,.41,1.14,.02,.22-.01,1.21-.23,1.23Z"/>
    <path class="cls-1" d="M38.12,53.48c-.21-.05-.15-.77-.12-.92,.04-.16,.3-.81,.5-.76,.21,.05,.16,.74,.12,.9-.04,.16-.3,.83-.51,.78Z"/>
    <path class="cls-1" d="M38.13,52.63c-.2-.06-.08-.79-.03-.95,.05-.16,.37-.8,.57-.73,.2,.06,.09,.77,.04,.93-.05,.16-.38,.82-.58,.75Z"/>
    <path class="cls-1" d="M38.52,51.8c-.2-.08,.04-.9,.11-1.08,.07-.18,.5-.89,.69-.8,.2,.08-.03,.88-.1,1.05-.07,.18-.51,.91-.7,.83Z"/>
    <path class="cls-1" d="M37.5,52.81c-.19-.1,.27-1.14,.4-1.36,.12-.22,.75-1.12,.94-1.02,.19,.1-.25,1.11-.38,1.33-.12,.22-.77,1.15-.96,1.05Z"/>
    <path class="cls-1" d="M37.81,54.49c-.06,.22-.64,.09-.74,0-.13-.06-.46-.53-.27-.67,.16-.12,.54,.1,.63,.14,.07,.07,.43,.34,.38,.54Z"/>
    <path class="cls-1" d="M37.63,54.66c-.21,0-.31-.77-.31-.95,0-.17,.12-.92,.33-.92,.21,0,.31,.75,.31,.92,0,.17-.12,.94-.33,.94Z"/>
    <path class="cls-1" d="M36.99,55.51c-.21-.02-.25-.94-.23-1.14,.02-.21,.2-1.08,.41-1.06,.21,.02,.25,.91,.23,1.11-.02,.21-.2,1.11-.41,1.09Z"/>
    <path class="cls-1" d="M36.97,57.19c-.21,.03-.38-.37-.4-.47-.01-.1,.03-.52,.24-.55,.21-.03,.38,.36,.39,.45,.01,.1-.03,.53-.24,.56Z"/>
    <path class="cls-1" d="M36.43,56.18c.11,.01,.17,.18,.24,.34,.1,.23,.15,.36,.16,.39,.02,.06,.05,.23,.09,.4,.03,.17,.08,.33,0,.41-.08,.07-.26,0-.41-.16-.15-.15-.27-.36-.29-.44-.03-.08-.07-.33-.03-.54,.03-.22,.13-.39,.24-.38Z"/>
    <path class="cls-1" d="M36.08,57.02c-.2-.08,.05-.96,.13-1.15,.08-.19,.51-.96,.71-.88,.2,.08-.04,.94-.12,1.13-.08,.19-.53,.99-.72,.91Z"/>
    <path class="cls-1" d="M36.59,57.71c-.07-.18,.17-.53,.19-.61,.07-.06,.29-.4,.49-.4,.1,.01,.17,.16,.17,.34,0,.18-.07,.36-.12,.42-.04,.06-.18,.21-.35,.28-.16,.08-.33,.08-.38-.02Z"/>
    <path class="cls-1" d="M38.35,52.47c-.21-.06-.16-.64-.12-.77,.03-.13,.29-.64,.49-.58,.21,.06,.16,.62,.13,.75-.03,.13-.29,.65-.5,.6Z"/>
    <path class="cls-1" d="M28.04,46.64c-.04,.1-.23,.11-.43,.05-.2-.06-.4-.2-.46-.26-.06-.06-.2-.25-.26-.44-.07-.2-.05-.39,.04-.43,.18-.05,.56,.35,.66,.41,.04,.04,.15,.18,.26,.3,.11,.13,.22,.26,.18,.36Z"/>
    <path class="cls-1" d="M28.39,45.78c-.21,0-.32-.35-.32-.43,0-.08,.11-.42,.32-.42,.21,0,.32,.34,.32,.42,0,.08-.11,.43-.32,.43Z"/>
    <path class="cls-1" d="M32.48,41.4c-.19-.1-.21-.29-.2-.32,.02-.03,.18-.12,.37-.02,.19,.1,.22,.28,.2,.31-.02,.03-.18,.12-.37,.02Z"/>
    <path class="cls-1" d="M31.59,28.53c-.19,.09-.43-.14-.46-.2s-.07-.38,.12-.48,.42,.13,.45,.19,.07,.39-.12,.49Z"/>
  </g>
  <g>
    <path class="cls-1" d="M71.47,29.64s.67-.35,1.8-.58c1.13-.23,2.72-.33,4.37-.15,1.65,.16,3.35,.55,4.78,.93,.72,.19,1.37,.38,1.92,.55,.39,.12,.23,.07,.26,.08h0s.01,.03-.02-.06c-.09-.24-.33-.57-.77-.8-.44-.23-1.08-.35-1.78-.48-1.4-.25-3.05-.38-4.62-.31-1.57,.05-3.05,.29-4.13,.53-1.08,.24-1.76,.44-1.78,.39-.02-.04,.64-.34,1.71-.66,1.07-.32,2.57-.63,4.17-.74,1.6-.12,3.31-.03,4.75,.19,.71,.12,1.4,.22,1.97,.51,.58,.28,.94,.75,1.08,1.13,.03,.06,.1,.29,.11,.47,.02,.19-.01,.36-.03,.57-.21,.13-.97-.2-1.11-.22-.55-.17-1.19-.36-1.9-.57-1.41-.41-3.07-.83-4.67-1.04-1.6-.23-3.15-.2-4.27-.05-1.12,.15-1.83,.37-1.85,.31Z"/>
    <path class="cls-1" d="M84.54,30.68c-.16-.12-.13-.48-.14-.55,.03-.07,.11-.4,.3-.47,.22-.07,.38,.43,.34,.56,0,.06-.07,.22-.17,.33-.1,.12-.23,.18-.32,.12Z"/>
    <path class="cls-1" d="M83.65,30.31c-.19-.1-.14-.43-.11-.49,.03-.06,.27-.28,.46-.18,.19,.1,.14,.42,.11,.48-.03,.06-.27,.29-.46,.19Z"/>
    <path class="cls-1" d="M83.05,30c-.2-.08-.15-.47-.12-.55,.03-.08,.27-.38,.47-.3,.2,.08,.16,.46,.13,.54-.03,.08-.27,.39-.47,.31Z"/>
    <path class="cls-1" d="M82.33,29.81c0-.21,.7-.32,.86-.31,.16,0,.83,.12,.83,.33,0,.21-.68,.32-.84,.31s-.86-.12-.86-.33Z"/>
    <path class="cls-1" d="M81.7,29.45c-.2,.07-.37-.11-.39-.16-.02-.05,.02-.28,.22-.35,.2-.07,.37,.1,.39,.15,.02,.05-.02,.29-.22,.36Z"/>
    <path class="cls-1" d="M80.64,29.45c0-.21,.98-.31,1.2-.31,.22,0,1.17,.12,1.17,.33,0,.21-.95,.31-1.17,.31-.22,0-1.2-.12-1.2-.33Z"/>
    <path class="cls-1" d="M81.32,29.63c-.03,.1-.21,.13-.4,.09-.19-.03-.39-.13-.45-.18-.15-.08-.52-.65-.32-.78,.17-.1,.6,.21,.7,.26,.08,.09,.51,.41,.47,.6Z"/>
    <path class="cls-1" d="M79.96,28.95c.05-.21,.98-.1,1.19-.05,.21,.05,1.06,.36,1.01,.57-.05,.21-.95,.1-1.16,.06s-1.09-.37-1.04-.58Z"/>
    <path class="cls-1" d="M79.81,28.75c-.12,.16-.48,.13-.55,.14-.07-.03-.4-.1-.48-.29-.03-.1,.06-.21,.2-.28,.14-.07,.3-.08,.36-.07,.06,0,.22,.07,.34,.17,.12,.1,.18,.24,.12,.33Z"/>
    <path class="cls-1" d="M78.45,28.91c.06-.19,.57-.25,.67-.28,.11,.01,.61-.02,.69,.16,.1,.21-.48,.49-.64,.48-.15,.04-.79-.13-.73-.36Z"/>
    <path class="cls-1" d="M77.77,28.92c-.19-.1-.21-.29-.2-.32,.02-.03,.18-.12,.37-.02,.19,.1,.22,.28,.2,.31-.02,.03-.18,.12-.37,.02Z"/>
    <path class="cls-1" d="M78.11,28.74c-.1,.19-.29,.21-.32,.2-.03-.02-.12-.18-.02-.37,.1-.19,.28-.21,.31-.2,.03,.02,.12,.18,.02,.37Z"/>
    <path class="cls-1" d="M79.97,28.94c-.07,.2-.52,.16-.62,.13-.09-.03-.46-.27-.4-.48,.07-.2,.51-.16,.6-.13,.09,.03,.48,.28,.41,.48Z"/>
    <path class="cls-1" d="M80.33,29.26c-.15,.15-.37,.09-.4,.06-.03-.03-.09-.24,.06-.39s.36-.09,.39-.06c.03,.03,.1,.25-.05,.4Z"/>
    <path class="cls-1" d="M83.68,30.32c.07-.19,.42-.27,.48-.3,.07,0,.42-.01,.54,.15,.13,.2-.31,.49-.45,.48-.13,.04-.65-.12-.58-.34Z"/>
    <path class="cls-1" d="M80.49,29.08c.05-.09,.19-.11,.31-.15,.17-.06,.26-.08,.28-.09,.02,0,.11-.01,.29-.03,.13-.01,.26-.05,.34,.02,.08,.06,.05,.24-.08,.39-.13,.15-.33,.24-.41,.25-.08,.02-.31,.02-.49-.06-.19-.08-.29-.23-.24-.32Z"/>
    <path class="cls-1" d="M71.76,39.79s.21-.04,.59-.02c.37,.02,.91,.08,1.55,.25,1.28,.32,2.94,1.11,4.35,2.39,1.43,1.26,2.57,2.93,3.32,4.46,.39,.75,.62,1.56,1.01,1.84,.19,.14,.43,.18,.57,.14,.14-.04,.22-.13,.26-.25,.1-.22,.07-.74-.13-1.3-.19-.56-.56-1.19-1.07-1.81-1-1.25-2.41-2.51-3.94-3.42-1.52-.92-3.13-1.5-4.34-1.79-1.21-.3-2.02-.37-2.02-.43,0-.04,.82-.07,2.07,.16,1.25,.22,2.92,.75,4.53,1.65,1.61,.89,3.1,2.17,4.17,3.45,1.09,1.29,1.66,2.74,1.32,3.72-.08,.23-.32,.54-.7,.64-.37,.09-.77,0-1.11-.26-.34-.26-.53-.63-.69-.99-.15-.36-.3-.71-.48-1.09-.7-1.49-1.77-3.12-3.1-4.37-1.32-1.26-2.89-2.09-4.11-2.47-1.22-.4-2.07-.42-2.06-.49Z"/>
    <path class="cls-1" d="M83.02,48.95c-.21-.02-.23-.8-.21-.98s.21-.91,.42-.88c.21,.02,.24,.78,.22,.95-.02,.17-.21,.93-.42,.91Z"/>
    <path class="cls-1" d="M82.65,48.42c-.17-.09-.04-.76-.02-.9,.05-.14,.23-.77,.43-.77,.23,0,.26,.75,.2,.92-.02,.18-.4,.86-.6,.75Z"/>
    <path class="cls-1" d="M82.15,47.07c-.19-.05-.18-.93-.18-1.13,.03-.19,.11-1.05,.31-1.07,.22-.02,.36,.89,.33,1.11,0,.22-.24,1.14-.46,1.09Z"/>
    <path class="cls-1" d="M82.04,46.74c-.21-.05-.24-.42-.22-.5,.02-.08,.2-.39,.4-.35,.21,.05,.24,.41,.22,.48-.02,.08-.2,.4-.41,.36Z"/>
    <path class="cls-1" d="M81.69,45.72c-.09,.05-.3-.13-.47-.39-.18-.25-.32-.56-.36-.68-.11-.23-.2-1.3,.04-1.32,.19,0,.48,.91,.57,1.11,.04,.22,.38,1.16,.22,1.26Z"/>
    <path class="cls-1" d="M79.22,42.92c.13-.17,1.27,.58,1.51,.77,.24,.19,1.21,1.08,1.08,1.25-.13,.17-1.23-.55-1.48-.74-.24-.19-1.25-1.11-1.11-1.28Z"/>
    <path class="cls-1" d="M80.65,44.22c-.16,.12-1.05-.79-1.25-.99-.18-.22-.98-1.15-.85-1.3,.15-.17,1.13,.64,1.32,.87,.21,.21,.96,1.29,.78,1.42Z"/>
    <path class="cls-1" d="M80,44.02c-.15,.15-1.2-.77-1.41-.99-.22-.22-1.08-1.26-.92-1.41s1.17,.74,1.38,.96c.22,.22,1.11,1.29,.95,1.44Z"/>
    <path class="cls-1" d="M81.52,47.07c-.19,.09-1.24-1.76-1.45-2.19-.21-.43-1.04-2.32-.85-2.42,.19-.09,1.21,1.7,1.42,2.13,.21,.43,1.07,2.38,.88,2.48Z"/>
    <path class="cls-1" d="M82.18,47.76c-.18,.11-.62-.4-.7-.52-.08-.13-.32-.73-.14-.84,.18-.11,.61,.38,.68,.51,.08,.13,.33,.75,.15,.86Z"/>
    <path class="cls-1" d="M82.19,46.06c.09-.06,.29,.11,.46,.35,.17,.23,.29,.54,.31,.65,.03,.11,.07,.43,.03,.71-.03,.28-.13,.52-.23,.51-.11,0-.17-.24-.24-.47-.1-.34-.16-.53-.18-.58-.01-.06-.06-.26-.13-.61-.05-.25-.11-.49-.02-.54Z"/>
    <path class="cls-1" d="M82.53,48.26c-.09,.05-.33-.2-.53-.53-.2-.33-.36-.73-.4-.88-.04-.15-.12-.56-.11-.93,0-.37,.07-.7,.18-.71,.11,0,.2,.31,.3,.64,.14,.45,.23,.73,.26,.83,.02,.1,.1,.4,.22,.86,.09,.35,.18,.67,.09,.72Z"/>
    <path class="cls-1" d="M81.86,47.41c-.21,.02-.4-.81-.42-1-.02-.19,.01-1.01,.23-1.03,.21-.02,.4,.78,.41,.97,.02,.19-.01,1.04-.22,1.06Z"/>
    <path class="cls-1" d="M81.19,45.37c.07-.2,.14-.33,.14-.34,.02,0,.16,0,.37,.02,.1,.03,.16,.14,.13,.26-.02,.13-.11,.23-.16,.26-.04,.03-.18,.07-.31,.04-.13-.03-.21-.13-.19-.23Z"/>
    <path class="cls-1" d="M81.02,45.04c-.15-.15-.08-.37-.05-.4,.03-.03,.24-.09,.39,.06,.15,.15,.09,.36,.06,.39-.03,.03-.25,.09-.4-.06Z"/>
    <path class="cls-1" d="M80.68,45.37c-.21,0-.32-.42-.32-.52,0-.09,.11-.5,.33-.5,.21,0,.32,.41,.32,.5,0,.09-.11,.51-.33,.51Z"/>
    <path class="cls-1" d="M81.01,45.36c-.08-.2,.24-.43,.32-.46s.46-.06,.53,.14c.08,.2-.23,.43-.31,.46-.08,.03-.47,.06-.55-.14Z"/>
    <path class="cls-1" d="M80.71,45.56c-.2-.08-.15-.47-.12-.55,.03-.08,.27-.38,.47-.3,.2,.08,.16,.46,.13,.54-.03,.08-.27,.39-.47,.31Z"/>
    <path class="cls-1" d="M81.17,46.73c-.18-.11,0-.65,.07-.76,.06-.11,.43-.53,.62-.42s0,.63-.06,.74c-.06,.11-.44,.54-.63,.44Z"/>
    <path class="cls-1" d="M82.69,48.1c-.21-.01-.3-.44-.29-.53,0-.09,.14-.49,.35-.48,.21,.01,.3,.42,.29,.52,0,.09-.14,.51-.35,.5Z"/>
    <path class="cls-1" d="M83.19,48.78c-.17-.13-.04-.47,0-.54,.05-.06,.34-.27,.51-.14,.17,.13,.05,.46,0,.53-.05,.06-.35,.28-.52,.15Z"/>
    <path class="cls-1" d="M82.46,47.07c.2,.04,.27,.7,.29,.84,0,.15,0,.79-.2,.85-.22,.06-.45-.64-.44-.81-.03-.17,.13-.92,.35-.88Z"/>
    <path class="cls-1" d="M81.51,46.05c-.08-.2,.22-.44,.3-.48,.08-.03,.46-.08,.54,.12,.08,.2-.21,.44-.29,.47-.08,.03-.47,.08-.55-.12Z"/>
    <path class="cls-1" d="M81.01,45.38c-.05-.21,.21-.38,.27-.4,.06-.02,.36,.02,.41,.23,.05,.21-.2,.38-.26,.39s-.37-.02-.42-.23Z"/>
    <path class="cls-1" d="M77.32,41.28c-.09-.19,0-.36,.03-.37,.03-.02,.22,.02,.31,.21,.09,.19,0,.35-.03,.37-.03,.02-.22-.01-.31-.2Z"/>
    <path class="cls-1" d="M67.63,47.09s.18,.02,.46,.18c.28,.15,.65,.44,1,.88,.73,.86,1.25,2.31,1.69,3.79,.46,1.49,.94,3.05,1.36,4.38,.1,.34,.2,.66,.29,.96,.09,.31,.17,.58,.28,.75,.11,.18,.22,.21,.31,.2,.08,0,.17-.07,.23-.17,.32-.34,.31-1.51-.11-2.76-.42-1.25-1.2-2.64-2.01-3.88-.83-1.24-1.74-2.33-2.46-3.08-.71-.76-1.22-1.22-1.18-1.26,.03-.04,.59,.35,1.37,1.06,.78,.71,1.77,1.77,2.66,3.01,.88,1.24,1.7,2.63,2.19,3.96,.24,.67,.37,1.32,.4,1.89,.01,.27,.01,.57-.05,.82-.06,.25-.16,.46-.28,.62-.11,.15-.33,.39-.7,.42-.35,.05-.74-.21-.9-.51-.18-.29-.25-.61-.34-.91-.09-.3-.18-.63-.28-.96-.38-1.34-.82-2.91-1.24-4.41-.39-1.5-.83-2.89-1.46-3.76-.6-.88-1.27-1.17-1.23-1.23Z"/>
    <path class="cls-1" d="M73.1,58.35c-.2-.07-.03-.94,.03-1.13,.06-.19,.43-.97,.64-.9,.2,.07,.04,.91-.03,1.1s-.44,1-.64,.93Z"/>
    <path class="cls-1" d="M72.41,56.17c.08-.06,.29,.08,.46,.28,.18,.2,.31,.47,.35,.57,.04,.1,.1,.39,.1,.65,0,.26-.07,.49-.17,.5-.19,0-.44-.77-.53-.93-.01-.05-.07-.23-.17-.56-.06-.23-.13-.45-.04-.51Z"/>
    <path class="cls-1" d="M72.26,56.82c-.11,0-.16-.3-.24-.6-.1-.41-.17-.67-.19-.75-.02-.08-.07-.33-.15-.74-.06-.3-.13-.58-.04-.63,.09-.05,.31,.16,.48,.45,.18,.29,.3,.64,.33,.78,.03,.14,.08,.52,.04,.87-.03,.35-.14,.64-.24,.63Z"/>
    <path class="cls-1" d="M72.92,57.49c-.18-.09-.06-.76-.04-.91,.05-.14,.24-.77,.44-.77,.23,0,.24,.75,.18,.92-.02,.18-.38,.85-.59,.76Z"/>
    <path class="cls-1" d="M72.6,56.48c-.21-.04-.14-.9-.1-1.09,.04-.19,.32-.97,.52-.93s.14,.87,.1,1.06c-.04,.19-.32,1-.53,.95Z"/>
    <path class="cls-1" d="M72.49,55.3c-.21-.06-.16-.64-.12-.77,.03-.13,.29-.64,.49-.58,.21,.06,.16,.62,.13,.75-.03,.13-.29,.65-.5,.6Z"/>
    <path class="cls-1" d="M71.77,53.76c-.2-.06-.13-.71-.08-.85,.04-.14,.32-.71,.53-.65,.2,.06,.13,.69,.09,.83-.04,.14-.33,.73-.53,.67Z"/>
    <path class="cls-1" d="M71.6,54.44c-.21-.02-.23-1.01-.2-1.23,.02-.22,.22-1.16,.43-1.14,.21,.02,.23,.98,.21,1.2-.02,.22-.22,1.19-.43,1.17Z"/>
    <path class="cls-1" d="M71.49,53.76c-.21,.04-.46-.63-.49-.79-.03-.16-.07-.86,.14-.9,.21-.04,.46,.61,.49,.77,.03,.16,.07,.88-.13,.92Z"/>
    <path class="cls-1" d="M71.49,52.91c-.2,.06-.52-.61-.57-.76-.05-.16-.15-.87,.06-.93,.2-.06,.51,.58,.56,.74,.05,.16,.16,.89-.05,.95Z"/>
    <path class="cls-1" d="M71.12,52.07c-.2,.08-.62-.66-.69-.84-.07-.18-.28-.98-.08-1.06s.61,.64,.68,.81c.07,.18,.29,1,.09,1.08Z"/>
    <path class="cls-1" d="M72.12,53.1c-.19,.1-.82-.84-.94-1.07-.12-.22-.54-1.24-.36-1.34,.19-.1,.8,.81,.92,1.03,.12,.22,.56,1.27,.37,1.37Z"/>
    <path class="cls-1" d="M71.79,54.77c-.04-.2,.32-.47,.39-.53,.09-.04,.47-.25,.63-.13,.18,.14-.16,.61-.29,.67-.11,.1-.69,.22-.74,0Z"/>
    <path class="cls-1" d="M71.96,54.95c-.21,0-.31-.77-.31-.95,0-.17,.12-.92,.33-.92s.31,.75,.31,.92c0,.17-.12,.94-.33,.94Z"/>
    <path class="cls-1" d="M72.59,55.81c-.21,.01-.38-.89-.39-1.1-.01-.21,.04-1.09,.25-1.11,.21-.01,.38,.86,.39,1.07,.01,.21-.04,1.12-.25,1.14Z"/>
    <path class="cls-1" d="M72.58,57.49c-.21-.04-.24-.47-.23-.57,.02-.09,.19-.48,.4-.45,.21,.04,.25,.46,.23,.56-.02,.09-.19,.5-.4,.46Z"/>
    <path class="cls-1" d="M73.13,56.49c.1-.01,.2,.17,.23,.39,.03,.22,0,.46-.04,.54-.03,.08-.14,.29-.3,.44-.15,.15-.34,.22-.41,.15-.08-.07-.03-.24,0-.41,.04-.17,.08-.33,.1-.4,.01-.03,.07-.15,.17-.38,.07-.16,.14-.32,.25-.33Z"/>
    <path class="cls-1" d="M73.47,57.33c-.2,.08-.63-.73-.71-.92-.08-.19-.3-1.05-.1-1.13,.2-.08,.62,.7,.7,.89,.08,.19,.31,1.08,.11,1.16Z"/>
    <path class="cls-1" d="M72.94,58.02c-.05,.09-.22,.09-.38,.01-.17-.07-.3-.22-.34-.28-.04-.06-.11-.24-.11-.42,0-.18,.07-.33,.17-.33,.2,0,.41,.35,.48,.41,.02,.09,.26,.44,.18,.62Z"/>
    <path class="cls-1" d="M71.28,52.75c-.21,.05-.46-.48-.49-.6s-.07-.69,.14-.75c.21-.05,.45,.46,.48,.59,.03,.13,.07,.71-.13,.77Z"/>
    <path class="cls-1" d="M81.69,47.1c-.04-.1,.08-.23,.19-.36,.11-.13,.22-.26,.26-.3,.11-.06,.49-.46,.67-.4,.1,.04,.11,.23,.04,.43-.06,.2-.2,.38-.26,.44-.06,.06-.26,.19-.46,.25-.2,.06-.4,.04-.43-.06Z"/>
    <path class="cls-1" d="M81.35,46.22c-.21,0-.32-.35-.32-.43,0-.08,.11-.42,.32-.42,.21,0,.32,.34,.32,.42,0,.08-.11,.43-.32,.43Z"/>
    <path class="cls-1" d="M77.34,41.78c-.19,.09-.36,0-.37-.03-.02-.03,.01-.22,.21-.31,.19-.09,.35,0,.37,.03,.02,.03-.01,.22-.2,.31Z"/>
    <path class="cls-1" d="M78.44,28.93c-.19-.1-.14-.42-.11-.49,.03-.06,.27-.28,.46-.19,.19,.1,.15,.42,.12,.48-.03,.06-.27,.29-.46,.2Z"/>
  </g>
</svg>